<svg width="342" height="342" viewBox="0 0 342 342" fill="none" xmlns="http://www.w3.org/2000/svg">
<path d="M75.2399 291.384C130.028 317.492 218.812 317.492 273.6 291.384C328.388 265.276 328.32 222.984 273.6 196.876C218.88 170.767 130.056 170.774 75.2947 196.876C20.5336 222.977 20.5199 265.289 75.2399 291.384Z" fill="#EBEBEB"/>
<path d="M251.767 97.333L254.284 95.3973V89.8569C254.284 85.4724 257.779 80.3766 261.582 78.181C265.385 75.9854 268.47 77.7638 268.47 82.155V82.9553C269.269 81.6571 270.361 80.5634 271.657 79.761C274.393 78.181 276.616 79.4601 276.616 82.6202V82.9895L281.651 80.0825C283.449 79.0428 284.913 79.8842 284.913 81.9635C284.851 83.0953 284.524 84.1966 283.957 85.1782C283.39 86.1598 282.6 86.994 281.651 87.6133L251.767 104.864C249.968 105.904 248.504 105.062 248.504 102.983C248.566 101.851 248.893 100.75 249.46 99.7681C250.027 98.7866 250.817 97.9523 251.767 97.333Z" fill="#EBEBEB"/>
<path d="M71.1973 247.909C70.8417 247.847 70.4655 247.738 70.0414 247.628C68.6121 247.245 67.2035 246.788 65.8211 246.26C63.0639 245.26 60.4635 243.871 58.0987 242.136C56.8018 241.214 55.6923 240.053 54.8292 238.716C53.9666 237.362 53.6603 235.728 53.9742 234.154C54.148 233.377 54.5404 232.666 55.1052 232.104C55.67 231.543 56.3836 231.155 57.1617 230.987C57.8935 230.87 58.6528 230.987 59.3847 230.857C59.7594 230.827 60.1148 230.678 60.399 230.432C60.6832 230.186 60.8814 229.855 60.9647 229.489C60.9676 229.069 60.854 228.657 60.6364 228.298C59.3074 225.864 58.1642 223.333 57.2164 220.727C56.423 218.401 56.3751 215.885 57.0796 213.531C57.6778 211.189 58.9586 209.077 60.7595 207.464C61.5803 206.78 62.7157 206.192 63.7075 206.623C64.0229 206.783 64.2998 207.01 64.5194 207.287C64.739 207.565 64.896 207.886 64.9798 208.23C65.1329 208.917 65.2108 209.619 65.2123 210.323C65.31 211.838 65.5996 213.334 66.0742 214.776C66.2866 215.677 66.8036 216.476 67.5379 217.04C68.8102 217.833 70.5612 217.211 71.9155 217.854C73.2699 218.497 73.735 219.974 73.7965 221.37C73.8581 222.765 73.5777 224.174 73.735 225.562C73.7625 226.001 73.9014 226.424 74.1385 226.794C74.5151 227.197 74.951 227.541 75.4313 227.813C76.0623 228.335 76.5681 228.992 76.9114 229.735C77.2547 230.479 77.4267 231.29 77.4149 232.108C77.3734 233.744 77.0614 235.362 76.4915 236.896C75.8636 239.041 75.4061 241.232 75.1235 243.449C74.9005 244.807 74.325 246.083 73.4545 247.15C73.1963 247.486 72.8437 247.738 72.4417 247.873C72.0396 248.009 71.6064 248.021 71.1973 247.909Z" fill="#61A7C6"/>
<path d="M73.4682 246.773C73.4279 246.773 73.3884 246.762 73.3536 246.742C73.3189 246.721 73.29 246.692 73.2698 246.657C65.2876 233.196 62.7636 223.716 62.0454 218.128C61.2588 212.04 62.3669 209.188 62.4148 209.071C62.426 209.043 62.4428 209.016 62.4641 208.994C62.4855 208.972 62.5111 208.954 62.5393 208.942C62.5676 208.929 62.598 208.923 62.6289 208.922C62.6597 208.921 62.6904 208.927 62.7191 208.938C62.7479 208.949 62.7741 208.966 62.7964 208.987C62.8187 209.009 62.8365 209.034 62.8489 209.063C62.8613 209.091 62.868 209.121 62.8686 209.152C62.8692 209.183 62.8638 209.214 62.8525 209.242C62.8525 209.29 61.7444 212.156 62.5174 218.134C63.2014 223.668 65.7595 233.066 73.6734 246.425C73.6894 246.451 73.7 246.48 73.7045 246.511C73.709 246.541 73.7074 246.573 73.6998 246.603C73.6921 246.632 73.6786 246.661 73.66 246.685C73.6414 246.71 73.618 246.731 73.5913 246.746C73.5529 246.764 73.5108 246.774 73.4682 246.773Z" fill="white"/>
<path d="M69.1998 238.969C59.4733 237.902 56.7237 234.708 56.6074 234.571C56.5639 234.527 56.5396 234.468 56.5396 234.407C56.5396 234.345 56.5639 234.286 56.6074 234.243C56.6285 234.22 56.6539 234.203 56.6822 234.19C56.7104 234.178 56.7408 234.172 56.7715 234.172C56.8023 234.172 56.8327 234.178 56.8609 234.19C56.8892 234.203 56.9146 234.22 56.9357 234.243C56.9357 234.277 59.7127 237.43 69.2135 238.477C69.2692 238.486 69.3197 238.515 69.3562 238.558C69.3926 238.601 69.4126 238.656 69.4126 238.713C69.4126 238.769 69.3926 238.824 69.3562 238.867C69.3197 238.91 69.2692 238.939 69.2135 238.949L69.1998 238.969Z" fill="white"/>
<path d="M66.4572 232.909C66.4054 232.909 66.355 232.892 66.3136 232.861C66.2891 232.842 66.2687 232.819 66.2534 232.792C66.2381 232.765 66.2283 232.736 66.2245 232.705C66.2206 232.675 66.2229 232.644 66.2312 232.614C66.2394 232.584 66.2535 232.557 66.2725 232.532C69.3574 228.476 69.5557 221.828 69.5626 221.759C69.5625 221.728 69.5688 221.698 69.5809 221.67C69.5931 221.641 69.611 221.616 69.6334 221.595C69.6559 221.574 69.6824 221.557 69.7114 221.547C69.7404 221.536 69.7712 221.532 69.802 221.534C69.8328 221.534 69.8633 221.54 69.8916 221.552C69.9199 221.564 69.9455 221.582 69.9666 221.604C69.9877 221.627 70.0041 221.653 70.0146 221.682C70.0251 221.711 70.0295 221.742 70.0277 221.773C70.0277 222.053 69.8225 228.613 66.6487 232.813C66.6264 232.843 66.5975 232.867 66.5643 232.883C66.531 232.9 66.4944 232.909 66.4572 232.909Z" fill="white"/>
<path d="M265.802 206.335C266.746 199.974 266.76 192.211 262.088 180.87C257.417 169.529 258.867 163.585 263.873 161.964C268.88 160.343 279.975 168.955 279.564 183.435C279.161 197.416 269.715 208.962 269.715 208.962L265.802 206.335Z" fill="#61A7C6"/>
<path opacity="0.1" d="M265.802 206.335C266.746 199.974 266.76 192.211 262.088 180.87C257.417 169.529 258.867 163.585 263.873 161.964C268.88 160.343 279.975 168.955 279.564 183.435C279.161 197.416 269.715 208.962 269.715 208.962L265.802 206.335Z" fill="black"/>
<path d="M268.244 208.21C268.215 208.216 268.184 208.216 268.155 208.21C268.126 208.199 268.1 208.182 268.077 208.16C268.055 208.138 268.038 208.112 268.026 208.083C268.015 208.054 268.009 208.023 268.01 207.992C268.011 207.961 268.019 207.93 268.032 207.902C268.08 207.786 273.196 195.836 272.82 184.988C272.396 172.505 265.481 165.638 265.412 165.569C265.39 165.548 265.373 165.522 265.361 165.494C265.348 165.465 265.342 165.435 265.342 165.404C265.341 165.373 265.347 165.343 265.359 165.314C265.37 165.285 265.387 165.259 265.409 165.237C265.43 165.215 265.456 165.198 265.484 165.186C265.513 165.174 265.543 165.167 265.574 165.167C265.605 165.167 265.635 165.172 265.664 165.184C265.692 165.195 265.719 165.212 265.741 165.234C265.809 165.302 272.854 172.286 273.265 184.974C273.641 195.918 268.477 207.97 268.436 208.087C268.416 208.121 268.389 208.151 268.355 208.172C268.322 208.194 268.284 208.207 268.244 208.21Z" fill="white"/>
<path d="M266.076 211.978C266.076 211.978 268.716 196.602 278.087 187.765C287.458 178.928 303.08 177.245 307.978 181.964C312.875 186.684 309.735 191.274 302.834 192.867C295.036 194.666 290.255 197.813 295.036 200.22C299.475 202.45 298.976 207.286 294.352 209.605C286.965 213.312 273.627 209.783 270.412 217.074L266.076 211.978Z" fill="#61A7C6"/>
<path d="M268.06 215.234H267.984C267.926 215.212 267.878 215.169 267.851 215.113C267.825 215.056 267.821 214.992 267.841 214.933C270.001 208.92 273.33 203.394 277.636 198.674C281.01 195.024 284.962 191.953 289.332 189.584C293.674 187.188 298.4 185.567 303.299 184.796C303.362 184.79 303.424 184.809 303.473 184.849C303.521 184.888 303.552 184.946 303.559 185.008C303.563 185.039 303.561 185.07 303.552 185.099C303.544 185.129 303.53 185.157 303.511 185.181C303.492 185.205 303.468 185.225 303.441 185.24C303.414 185.255 303.385 185.264 303.354 185.268C298.505 186.047 293.829 187.667 289.537 190.056C282.697 193.77 273.415 201.137 268.265 215.124C268.242 215.158 268.212 215.186 268.176 215.205C268.14 215.224 268.1 215.234 268.06 215.234Z" fill="white"/>
<path d="M272.813 205.563C272.764 205.563 272.716 205.548 272.675 205.52C272.635 205.492 272.604 205.452 272.587 205.405C272.567 205.347 272.571 205.282 272.598 205.226C272.625 205.17 272.673 205.126 272.731 205.105C280.727 202.314 292.191 203.778 292.307 203.791C292.338 203.795 292.367 203.805 292.394 203.821C292.42 203.836 292.444 203.857 292.462 203.881C292.481 203.906 292.495 203.934 292.503 203.963C292.511 203.993 292.513 204.024 292.509 204.055C292.505 204.085 292.495 204.115 292.479 204.141C292.464 204.168 292.443 204.191 292.419 204.21C292.394 204.229 292.367 204.243 292.337 204.25C292.307 204.258 292.276 204.26 292.245 204.256C292.136 204.256 280.775 202.793 272.888 205.549C272.865 205.56 272.839 205.565 272.813 205.563Z" fill="white"/>
<path d="M81.0199 47.8799C80.9627 46.8235 80.6573 45.7954 80.1284 44.8792C79.5996 43.9629 78.8622 43.1842 77.9761 42.6062L75.4932 41.1698C74.55 40.691 73.5071 40.4414 72.4494 40.4414C71.3916 40.4414 70.3487 40.691 69.4056 41.1698L49.7679 52.5037C48.8327 53.0914 48.0684 53.9146 47.5518 54.8909C47.1069 55.6665 46.8274 56.5259 46.731 57.4148C46.731 57.5379 46.731 57.6611 46.731 57.7842V80.4519C46.7889 81.5089 47.0954 82.5374 47.6254 83.4537C48.1555 84.37 48.8942 85.1484 49.7816 85.7256L52.2577 87.162L52.5723 87.3261L52.6886 87.374L52.9006 87.4629L53.0648 87.5245L53.2426 87.5861L53.441 87.6408L53.5915 87.6818L53.824 87.7365H53.9403L54.2208 87.7844H54.2755C55.6778 88.0143 57.1168 87.7864 58.3795 87.1346L77.9761 75.8281C78.8636 75.2494 79.6023 74.4698 80.1323 73.5524C80.6623 72.6349 80.9687 71.6055 81.0267 70.5476L81.0199 47.8799Z" fill="#61A7C6"/>
<path opacity="0.4" d="M56.1838 59.7336C55.8322 60.316 55.5693 60.9477 55.4041 61.6077C55.8124 59.8982 56.8632 58.4114 58.3384 57.4559L77.9761 46.122C79.6587 45.1507 81.0267 45.9373 81.0267 47.8799C80.9688 46.8229 80.6623 45.7944 80.1323 44.8781C79.6022 43.9618 78.8635 43.1834 77.9761 42.6062L75.4932 41.1698C74.55 40.691 73.5071 40.4414 72.4494 40.4414C71.3916 40.4414 70.3487 40.691 69.4056 41.1698L49.7679 52.5037C48.8327 53.0914 48.0684 53.9146 47.5518 54.8909L47.6133 54.7814L56.1838 59.7336Z" fill="white"/>
<path opacity="0.1" d="M57.7092 87.4491L57.5655 87.4901L57.3193 87.538H57.0867H56.8473C56.5645 87.5172 56.2937 87.4151 56.0676 87.2439L55.9581 87.1413L55.8966 87.0866L55.8145 86.984L55.7461 86.8951L55.6777 86.7856L55.6161 86.6762C55.6161 86.6762 55.6161 86.6009 55.5682 86.5599C55.5471 86.5178 55.5288 86.4744 55.5135 86.4299L55.4041 86.3205V86.1837C55.4041 86.1427 55.4041 86.1016 55.4041 86.0606C55.4003 85.9945 55.4003 85.9283 55.4041 85.8622C55.4003 85.8258 55.4003 85.7892 55.4041 85.7528C55.4041 85.6502 55.4041 85.5407 55.4041 85.4244V62.7362C55.4045 62.4909 55.4251 62.2461 55.4656 62.0043C55.4656 61.9154 55.4656 61.8196 55.5204 61.7307V61.6212C55.677 60.9627 55.9306 60.3311 56.2728 59.7471L47.6133 54.7812L47.5518 54.8907C47.1069 55.6663 46.8274 56.5257 46.731 57.4147C46.731 57.5378 46.731 57.6609 46.731 57.784V80.4518C46.7889 81.5088 47.0954 82.5372 47.6254 83.4535C48.1555 84.3698 48.8942 85.1482 49.7816 85.7254L52.2577 87.1618L52.5723 87.326L52.6886 87.3738L52.9006 87.4628L53.0648 87.5243L53.2426 87.5859L53.441 87.6406L53.5915 87.6817L53.824 87.7364H53.9403L54.2208 87.7842H54.2755C55.4301 87.9597 56.6103 87.8445 57.7092 87.4491Z" fill="black"/>
<path d="M72.4423 68.6665C73.7539 65.7365 74.4255 62.5605 74.4122 59.3504C75.053 58.3563 75.5916 57.2998 76.0196 56.1972C75.4674 56.8446 74.8458 57.4295 74.166 57.9414C74.8559 56.9771 75.338 55.88 75.5818 54.7197C74.9899 55.5427 74.3009 56.2914 73.5298 56.9496C73.1888 56.6958 72.775 56.5588 72.3499 56.5588C71.9249 56.5588 71.5111 56.6958 71.17 56.9496C69.118 58.1534 67.5585 61.6281 68.0305 64.0495C65.3492 65.4175 62.9689 65.0755 61.382 63.3655C60.5338 65.7868 60.9442 68.0851 62.3806 68.5297C61.9411 68.7936 61.4255 68.902 60.9169 68.8375C60.9169 70.8895 61.9497 72.1002 63.5024 71.6145C63.0908 72.0244 62.5931 72.3375 62.0455 72.5311C62.4559 74.0017 63.646 74.5831 65.0619 73.7828C63.9597 75.7427 62.2907 77.3235 60.2739 78.3177C61.6966 78.7144 63.393 78.4477 65.2192 77.3943C68.4067 75.5544 70.8554 72.2233 72.4218 68.6186" fill="white"/>
<path d="M81.0199 130.418C80.9585 129.366 80.6511 128.344 80.1224 127.432C79.5938 126.521 78.8586 125.747 77.9761 125.172L75.4932 123.735C74.55 123.256 73.5071 123.007 72.4494 123.007C71.3916 123.007 70.3487 123.256 69.4056 123.735L49.7747 135.069C48.8395 135.657 48.0753 136.48 47.5586 137.456C47.1137 138.232 46.8343 139.091 46.7378 139.98C46.7378 140.103 46.7378 140.226 46.7378 140.35V163.017C46.7977 164.068 47.1029 165.09 47.6292 166.001C48.1554 166.912 48.8879 167.687 49.7679 168.264L52.244 169.7L52.5586 169.857L52.6749 169.912L52.887 170.001L53.0511 170.063L53.229 170.124L53.4273 170.179L53.5778 170.22L53.8104 170.275H53.9266L54.2071 170.322H54.2618C55.6678 170.542 57.107 170.302 58.3658 169.638L77.9761 158.366C78.8636 157.787 79.6023 157.008 80.1323 156.09C80.6623 155.173 80.9687 154.144 81.0267 153.086L81.0199 130.418Z" fill="#61A7C6"/>
<path opacity="0.4" d="M56.1838 142.272C55.8417 142.856 55.5881 143.487 55.4314 144.146C55.833 142.441 56.8735 140.955 58.3384 139.994L77.9761 128.66C79.6587 127.689 81.0267 128.475 81.0267 130.418C80.9646 129.366 80.6561 128.343 80.1263 127.431C79.5964 126.52 78.8599 125.746 77.9761 125.172L75.4932 123.735C74.55 123.256 73.5071 123.007 72.4494 123.007C71.3916 123.007 70.3487 123.256 69.4056 123.735L49.7748 135.069C48.8395 135.657 48.0753 136.48 47.5586 137.456L47.6202 137.347L56.1838 142.272Z" fill="white"/>
<path opacity="0.1" d="M57.7091 169.987L57.5655 170.028C57.4849 170.053 57.4026 170.071 57.3192 170.083H57.0866H56.8472C56.5644 170.062 56.2936 169.96 56.0675 169.789L55.958 169.686L55.8965 169.631L55.8144 169.522L55.746 169.44L55.6776 169.331L55.616 169.221C55.616 169.18 55.616 169.146 55.5682 169.105C55.5458 169.061 55.5275 169.015 55.5135 168.968L55.4724 168.852L55.4314 168.688C55.4314 168.688 55.4314 168.612 55.4314 168.571C55.4276 168.505 55.4276 168.439 55.4314 168.373C55.4276 168.337 55.4276 168.3 55.4314 168.263C55.4314 168.161 55.4314 168.045 55.4314 167.928V145.274C55.4318 145.029 55.4524 144.784 55.4929 144.542C55.4929 144.447 55.4929 144.358 55.5476 144.269V144.159C55.7043 143.501 55.9579 142.869 56.3 142.285L47.7295 137.333L47.668 137.442C47.2231 138.218 46.9436 139.077 46.8472 139.966C46.8472 140.09 46.8472 140.213 46.8472 140.336V163.004C46.8926 164.047 47.1802 165.065 47.6871 165.978C48.194 166.891 48.9064 167.673 49.7679 168.263L52.2439 169.7L52.5586 169.857L52.6749 169.912L52.8869 170.001L53.051 170.062L53.2289 170.124L53.4272 170.179L53.5777 170.22L53.8103 170.274H53.9266L54.207 170.322H54.2617C55.4208 170.5 56.606 170.385 57.7091 169.987Z" fill="black"/>
<path d="M68.1539 140.903C70.1649 139.741 70.4043 139.617 71.1977 139.207C71.6154 138.956 72.0818 138.798 72.5657 138.742C72.875 138.71 73.1843 138.801 73.4275 138.995C73.701 139.203 73.9001 139.493 73.9953 139.823C74.1715 140.378 74.2592 140.957 74.2552 141.539C74.2894 142.572 74.2962 142.908 74.2962 145.568C74.2962 148.229 74.2962 148.564 74.2552 149.672C74.2432 150.35 74.156 151.025 73.9953 151.683C73.8715 152.198 73.6806 152.695 73.4275 153.161C73.2007 153.616 72.9105 154.038 72.5657 154.412C72.1635 154.855 71.7034 155.242 71.1977 155.561C70.4043 156.068 70.1649 156.246 68.1539 157.374C66.1429 158.503 65.9104 158.667 65.1169 159.077C64.6987 159.326 64.2323 159.482 63.7489 159.536C63.4375 159.567 63.1259 159.477 62.8803 159.282C62.6108 159.073 62.4145 158.783 62.3194 158.455C62.1435 157.902 62.0558 157.325 62.0595 156.745C62.0595 155.705 62.0116 155.377 62.0116 152.716C62.0116 150.055 62.0116 149.713 62.0595 148.612C62.0696 147.921 62.1568 147.232 62.3194 146.56C62.445 146.046 62.6334 145.55 62.8803 145.083C63.1129 144.629 63.405 144.208 63.7489 143.831C64.1496 143.386 64.61 143 65.1169 142.682C65.9104 142.176 66.1498 141.998 68.1539 140.869M68.1539 139.063C66.1019 140.24 65.8557 140.431 65.0554 140.91C64.3797 141.333 63.7652 141.846 63.2291 142.436C62.6857 143.009 62.2253 143.656 61.8611 144.358C61.4797 145.079 61.1879 145.843 60.9924 146.635C60.7796 147.5 60.6626 148.385 60.6436 149.276C60.6436 150.363 60.5957 150.712 60.5957 153.434C60.5957 156.157 60.5957 156.499 60.6436 157.538C60.6437 158.297 60.7614 159.052 60.9924 159.775C61.144 160.278 61.4474 160.723 61.8611 161.047C62.2492 161.35 62.7398 161.49 63.2291 161.437C63.8728 161.373 64.4955 161.173 65.0554 160.849C65.8557 160.432 66.1087 160.295 68.1539 159.118C70.1991 157.942 70.4521 157.75 71.2593 157.265C72.6038 156.433 73.6963 155.251 74.4193 153.845C74.7998 153.124 75.0893 152.359 75.2812 151.567C75.4967 150.705 75.616 149.822 75.6369 148.934C75.6369 147.839 75.6779 147.49 75.6779 144.768C75.6779 142.046 75.6779 141.71 75.6369 140.664C75.6359 139.907 75.5159 139.154 75.2812 138.434C75.1307 137.93 74.8301 137.484 74.4193 137.155C74.0309 136.853 73.5399 136.716 73.0513 136.772C72.4069 136.832 71.7836 137.033 71.2251 137.36C70.4179 137.771 70.1649 137.907 68.1197 139.091M68.1197 143.968C65.9856 145.199 64.2551 148.503 64.2551 151.348C64.2551 154.194 65.9856 155.5 68.1197 154.269C70.2538 153.038 71.9843 149.734 71.9843 146.888C71.9843 144.043 70.2538 142.737 68.1197 143.968ZM68.1197 152.463C66.7517 153.263 65.6163 152.415 65.6163 150.568C65.6163 148.722 66.738 146.574 68.1197 145.78C69.5014 144.987 70.63 145.828 70.63 147.682C70.63 149.535 69.5082 151.67 68.1197 152.47M73.0377 140.931C73.0377 140.247 72.6341 139.959 72.1348 140.247C71.8591 140.444 71.6337 140.704 71.4769 141.004C71.32 141.305 71.2361 141.638 71.2319 141.977C71.2319 142.661 71.6355 142.942 72.1348 142.661C72.4095 142.465 72.6344 142.206 72.7912 141.907C72.948 141.607 73.0324 141.275 73.0377 140.938" fill="white"/>
<path d="M115.193 77.6407C115.139 76.5866 114.838 75.5599 114.314 74.6437C113.79 73.7276 113.058 72.9476 112.176 72.367L109.693 70.9306C108.749 70.4517 107.705 70.2021 106.646 70.2021C105.587 70.2021 104.543 70.4517 103.599 70.9306L83.9681 82.2645C83.1379 82.8153 82.4371 83.5396 81.9139 84.3875C81.3908 85.2353 81.0578 86.1866 80.938 87.1756C80.938 87.2988 80.938 87.4219 80.938 87.545V110.213C80.9946 111.269 81.2998 112.298 81.8287 113.214C82.3576 114.13 83.0953 114.909 83.9818 115.486L86.4647 116.923L86.7793 117.087L86.8956 117.135L87.1077 117.224L87.265 117.285L87.4497 117.347L87.6412 117.402L87.7985 117.443L88.0311 117.497H88.1473L88.4278 117.545H88.4825C89.8848 117.775 91.3237 117.547 92.5865 116.895L112.176 105.589C113.063 105.01 113.801 104.23 114.329 103.313C114.858 102.395 115.163 101.366 115.22 100.308L115.193 77.6407Z" fill="#61A7C6"/>
<path opacity="0.4" d="M90.3635 89.4944C90.0223 90.0797 89.7666 90.7108 89.6043 91.3686C90.0075 89.6623 91.0506 88.176 92.5181 87.2167L112.176 75.8828C113.859 74.9115 115.22 75.6981 115.22 77.6407C115.163 76.5842 114.858 75.5559 114.329 74.6396C113.8 73.7232 113.063 72.9446 112.176 72.367L109.693 70.9306C108.749 70.4517 107.705 70.2021 106.646 70.2021C105.587 70.2021 104.543 70.4517 103.599 70.9306L83.9681 82.2645C83.0364 82.8544 82.2749 83.6772 81.7588 84.6517L81.8135 84.5422L90.3635 89.4944Z" fill="white"/>
<path opacity="0.1" d="M91.8888 117.21L91.7383 117.251C91.6601 117.276 91.5801 117.294 91.4989 117.306H91.2732H90.9722C90.6917 117.284 90.4233 117.182 90.1993 117.011L90.0899 116.909L90.0283 116.854L89.9394 116.745L89.8778 116.663C89.8511 116.629 89.8282 116.592 89.8094 116.553L89.7479 116.444C89.7479 116.41 89.7479 116.369 89.6932 116.327L89.6453 116.198L89.6042 116.074C89.6042 116.024 89.5906 115.97 89.5632 115.91C89.5593 115.872 89.5593 115.833 89.5632 115.794C89.5594 115.728 89.5594 115.662 89.5632 115.596C89.5595 115.559 89.5595 115.523 89.5632 115.486C89.5562 115.377 89.5562 115.267 89.5632 115.158V92.4969C89.567 92.2518 89.5876 92.0073 89.6248 91.765C89.6248 91.6693 89.6248 91.5803 89.6726 91.4914C89.6753 91.455 89.6753 91.4184 89.6726 91.382C89.835 90.7242 90.0907 90.0931 90.4319 89.5078L81.8545 84.5557L81.7998 84.6651C81.352 85.4394 81.0723 86.2994 80.979 87.1891C80.979 87.3122 80.979 87.4353 80.979 87.5584V110.226C81.0356 111.283 81.3408 112.311 81.8697 113.227C82.3986 114.144 83.1363 114.922 84.0228 115.5L86.5057 116.936L86.8204 117.1L86.9366 117.148L87.1487 117.237L87.306 117.299L87.4907 117.36L87.6822 117.415L87.8395 117.456L88.0721 117.511H88.1884L88.4688 117.559H88.5235C89.6569 117.718 90.8122 117.599 91.8888 117.21Z" fill="black"/>
<path d="M100.213 108.975L103.489 107.08V96.1362L105.774 94.816L106.013 91.013L103.489 92.4699V90.3837C103.489 89.5219 103.619 89.1046 104.242 88.749L106.013 87.723V83.9199L103.749 85.2332C102.629 85.8236 101.701 86.722 101.074 87.8224C100.448 88.9227 100.149 90.1793 100.213 91.4439V94.392L98.4961 95.3564V99.0637L100.199 98.0856L100.213 108.975Z" fill="white"/>
<path d="M70.8352 251.712L149.311 297.006C150.232 297.475 151.252 297.719 152.286 297.719C153.32 297.719 154.339 297.475 155.261 297.006L277.643 226.356C279.284 225.405 279.284 223.873 277.643 222.936L199.167 177.614C198.247 177.146 197.228 176.901 196.195 176.901C195.162 176.901 194.144 177.146 193.223 177.614L70.8352 248.292C69.1936 249.222 69.1936 250.754 70.8352 251.712Z" fill="#E0E0E0"/>
<path d="M73.3042 240.768L149.557 284.797C150.488 285.269 151.518 285.515 152.563 285.515C153.607 285.515 154.637 285.269 155.569 284.797L276.466 215.008C278.128 214.051 278.128 212.498 276.466 211.541L200.207 167.511C199.275 167.039 198.245 166.793 197.201 166.793C196.156 166.793 195.126 167.039 194.194 167.511L73.3042 237.348C71.6421 238.271 71.6421 239.824 73.3042 240.768Z" fill="#37474F"/>
<path d="M149.557 284.81L73.3045 240.767C71.8202 239.912 71.6629 238.579 72.8326 237.621C72.0893 238.21 71.4791 238.95 71.0417 239.792C70.6044 240.633 70.3499 241.558 70.2949 242.505V245.33C70.3518 246.374 70.654 247.39 71.1769 248.295C71.6998 249.201 72.4287 249.971 73.3045 250.542L149.557 294.564C150.483 295.056 151.518 295.303 152.566 295.282V285.528C151.518 285.549 150.483 285.302 149.557 284.81Z" fill="#455A64"/>
<path d="M276.466 224.776C277.341 224.206 278.069 223.438 278.591 222.533C279.112 221.629 279.413 220.614 279.469 219.571V216.746C279.414 215.799 279.16 214.874 278.723 214.033C278.285 213.191 277.675 212.451 276.931 211.862C278.101 212.82 277.95 214.154 276.466 215.009L155.569 284.811C154.646 285.302 153.612 285.549 152.566 285.529V295.297C153.612 295.316 154.646 295.069 155.569 294.578L276.466 224.776Z" fill="#263238"/>
<path d="M114.228 261.103C115.522 261.761 116.953 262.104 118.404 262.104C119.855 262.104 121.286 261.761 122.58 261.103C124.885 259.735 124.885 257.615 122.58 256.281C121.285 255.627 119.855 255.286 118.404 255.286C116.953 255.286 115.523 255.627 114.228 256.281C111.951 257.615 111.951 259.776 114.228 261.103Z" fill="#263238"/>
<path d="M161.424 275.467L88.4348 233.298C87.443 232.724 87.443 231.787 88.4348 231.212L183.511 176.301C184.069 176.018 184.687 175.87 185.313 175.87C185.939 175.87 186.557 176.018 187.115 176.301L260.105 218.469C261.104 219.044 261.104 219.974 260.105 220.521L165.029 275.44C164.473 275.727 163.856 275.879 163.23 275.884C162.604 275.889 161.985 275.746 161.424 275.467Z" fill="white"/>
<path d="M232.82 192.621C233.148 192.787 233.51 192.873 233.877 192.873C234.244 192.873 234.606 192.787 234.934 192.621C235.047 192.565 235.143 192.477 235.21 192.369C235.277 192.261 235.313 192.136 235.313 192.009C235.313 191.882 235.277 191.757 235.21 191.649C235.143 191.541 235.047 191.454 234.934 191.397C234.606 191.232 234.244 191.146 233.877 191.146C233.51 191.146 233.148 191.232 232.82 191.397C232.232 191.732 232.232 192.279 232.82 192.621Z" fill="#263238"/>
<path d="M236.199 202.211C236.854 202.541 237.578 202.714 238.313 202.714C239.047 202.714 239.771 202.541 240.426 202.211C241.596 201.527 241.596 200.439 240.426 199.769C239.772 199.435 239.047 199.261 238.313 199.261C237.578 199.261 236.854 199.435 236.199 199.769C235.029 200.412 235.029 201.533 236.199 202.211Z" fill="#263238"/>
<path d="M233.244 197.956C234.024 197.512 233.983 196.759 233.149 196.28L219.236 188.243C218.789 188.006 218.292 187.877 217.786 187.868C217.279 187.858 216.778 187.968 216.322 188.189C215.542 188.64 215.583 189.393 216.418 189.871L230.331 197.908C230.778 198.145 231.275 198.272 231.782 198.281C232.288 198.289 232.789 198.178 233.244 197.956Z" fill="#263238"/>
<path d="M182.279 187.642C181.281 188.216 181.281 189.147 182.279 189.694L237.888 221.808C238.448 222.091 239.067 222.238 239.694 222.238C240.322 222.238 240.94 222.091 241.5 221.808L253.812 214.715L194.591 180.515L182.279 187.642Z" fill="#EBEBEB"/>
<path d="M182.69 193.216L178.25 190.658C178.065 190.564 177.86 190.515 177.652 190.515C177.444 190.515 177.239 190.564 177.053 190.658L174.256 192.272C173.921 192.464 173.921 192.772 174.256 192.956L174.639 193.182L173.223 193.934C173.059 194.023 173.073 194.078 173.264 194.064L175.754 193.825L178.695 195.521C178.882 195.613 179.088 195.661 179.297 195.661C179.506 195.661 179.711 195.613 179.899 195.521L182.69 193.907C182.76 193.881 182.82 193.833 182.863 193.772C182.905 193.71 182.928 193.637 182.928 193.562C182.928 193.487 182.905 193.414 182.863 193.352C182.82 193.29 182.76 193.243 182.69 193.216Z" fill="#EBEBEB"/>
<path d="M183.996 199.893L183.668 199.209C183.244 198.313 182.984 197.095 184.215 196.391C184.681 196.154 185.197 196.031 185.72 196.031C186.243 196.031 186.758 196.154 187.225 196.391C187.868 196.76 188.011 197.314 187.656 197.759C188.454 197.54 189.306 197.628 190.043 198.005C190.225 198.064 190.385 198.18 190.498 198.335C190.611 198.491 190.672 198.678 190.672 198.87C190.672 199.062 190.611 199.249 190.498 199.405C190.385 199.56 190.225 199.676 190.043 199.735C188.839 200.419 186.732 200.296 185.179 200.057L183.996 199.893Z" fill="#EBEBEB"/>
<path d="M123.052 223.914L178.668 256.028C179.228 256.311 179.846 256.459 180.474 256.459C181.101 256.459 181.719 256.311 182.279 256.028L225.59 231.014C226.582 230.44 226.582 229.51 225.59 228.962L169.974 196.821C169.414 196.538 168.796 196.391 168.168 196.391C167.541 196.391 166.922 196.538 166.363 196.821L123.052 221.835C122.053 222.41 122.053 223.34 123.052 223.914Z" fill="#EBEBEB"/>
<path d="M123.476 227.41L119.016 224.845C118.829 224.753 118.623 224.705 118.414 224.705C118.206 224.705 118 224.753 117.812 224.845L115.015 226.459C114.947 226.487 114.889 226.534 114.848 226.595C114.807 226.656 114.785 226.727 114.785 226.801C114.785 226.874 114.807 226.946 114.848 227.007C114.889 227.068 114.947 227.115 115.015 227.143L115.405 227.369L113.989 228.114C113.818 228.203 113.838 228.265 113.989 228.244L116.479 228.012L119.42 229.708C119.607 229.8 119.813 229.847 120.022 229.847C120.23 229.847 120.436 229.8 120.624 229.708L123.421 228.087C123.492 228.067 123.556 228.025 123.602 227.968C123.649 227.911 123.678 227.841 123.684 227.767C123.69 227.694 123.673 227.62 123.636 227.556C123.599 227.492 123.543 227.441 123.476 227.41Z" fill="#EBEBEB"/>
<path d="M124.748 234.078L124.426 233.394C123.996 232.498 123.742 231.281 124.974 230.569C125.439 230.333 125.953 230.21 126.475 230.21C126.997 230.21 127.511 230.333 127.976 230.569C128.66 230.945 128.77 231.499 128.407 231.937C129.209 231.726 130.06 231.814 130.801 232.183C130.983 232.245 131.141 232.361 131.253 232.517C131.365 232.673 131.426 232.86 131.426 233.052C131.426 233.244 131.365 233.431 131.253 233.587C131.141 233.743 130.983 233.86 130.801 233.921C129.598 234.605 127.491 234.482 125.931 234.242L124.748 234.078Z" fill="#EBEBEB"/>
<path d="M107.149 231.015C107.709 230.731 108.327 230.584 108.955 230.584C109.582 230.584 110.2 230.731 110.76 231.015L166.37 263.122C167.368 263.696 167.368 264.633 166.37 265.208L155.022 271.76L95.8149 237.56L107.149 231.015Z" fill="#EBEBEB"/>
<path d="M168.948 223.62L137.292 232.122L178.681 256.021C179.241 256.304 179.86 256.452 180.487 256.452C181.114 256.452 181.733 256.304 182.293 256.021L183.189 255.501L201.048 229.297L163.12 236.739L168.948 223.62Z" fill="#E0E0E0"/>
<path d="M184.537 205.234L169.974 196.821C169.414 196.538 168.796 196.391 168.168 196.391C167.541 196.391 166.923 196.538 166.363 196.821L150.083 206.226C150.829 207.642 152.368 208.962 154.7 210.105C161.54 213.374 172.676 213.374 179.537 210.105C182.409 208.737 184.071 207.013 184.537 205.234Z" fill="#E0E0E0"/>
<path opacity="0.2" d="M254.763 202.272L181.766 160.11C181.208 159.827 180.59 159.68 179.964 159.68C179.338 159.68 178.72 159.827 178.162 160.11L83.0856 215.022C82.0938 215.596 82.0938 216.527 83.0856 217.074L98.5167 225.966L156.103 259.229C156.661 259.512 157.279 259.659 157.905 259.659C158.531 259.659 159.149 259.512 159.707 259.229L245.289 209.782L254.756 204.31C255.761 203.784 255.761 202.847 254.763 202.272Z" fill="white"/>
<path d="M254.941 201.972L194.585 167.088L181.944 159.81C181.333 159.496 180.655 159.333 179.968 159.333C179.28 159.333 178.603 159.496 177.991 159.81L82.9149 214.721C82.6439 214.826 82.4109 215.009 82.2465 215.249C82.0821 215.488 81.9941 215.772 81.9941 216.062C81.9941 216.352 82.0821 216.636 82.2465 216.875C82.4109 217.114 82.6439 217.298 82.9149 217.403L98.3459 226.295L155.952 259.578C156.564 259.892 157.242 260.056 157.929 260.056C158.617 260.056 159.294 259.892 159.906 259.578L245.481 210.132L254.955 204.66C255.225 204.554 255.457 204.369 255.621 204.129C255.784 203.889 255.872 203.606 255.872 203.316C255.872 203.025 255.784 202.742 255.621 202.502C255.457 202.262 255.225 202.077 254.955 201.972H254.941ZM254.592 204.058L245.119 209.53L159.543 258.976C159.037 259.229 158.478 259.361 157.912 259.361C157.346 259.361 156.787 259.229 156.281 258.976L98.6947 225.72L83.2705 216.828C83.1057 216.786 82.9597 216.69 82.8554 216.556C82.7511 216.421 82.6945 216.256 82.6945 216.086C82.6945 215.916 82.7511 215.75 82.8554 215.616C82.9597 215.482 83.1057 215.386 83.2705 215.344L178.347 160.432C178.854 160.181 179.412 160.05 179.978 160.05C180.544 160.05 181.102 160.181 181.609 160.432L194.256 167.717L254.613 202.601C254.777 202.643 254.923 202.739 255.028 202.873C255.132 203.008 255.189 203.173 255.189 203.343C255.189 203.513 255.132 203.678 255.028 203.813C254.923 203.947 254.777 204.043 254.613 204.085L254.592 204.058Z" fill="white"/>
<path d="M222.006 31.286C223.011 30.7046 223.832 31.1766 223.832 32.3394V166.807C223.797 167.441 223.613 168.058 223.296 168.608C222.979 169.158 222.537 169.626 222.006 169.974L169.529 200.275L163.373 220.795C162.819 222.656 161.711 222.738 160.904 220.966L155.268 208.524L139.946 217.368C138.941 217.95 138.12 217.478 138.12 216.315V81.8473C138.154 81.2131 138.338 80.5958 138.655 80.0456C138.972 79.4954 139.415 79.0276 139.946 78.6804L222.006 31.286Z" fill="#61A7C6"/>
<path d="M215.303 135.09C215.24 135.96 214.973 136.804 214.522 137.552C214.072 138.299 213.451 138.93 212.711 139.392L183.88 156.041C182.45 156.862 181.288 156.28 181.288 154.727C181.352 153.857 181.621 153.015 182.071 152.267C182.521 151.52 183.141 150.889 183.88 150.425L212.724 133.783C214.147 132.956 215.303 133.544 215.303 135.09Z" fill="white"/>
<path d="M209.988 151.718C209.924 152.588 209.656 153.431 209.205 154.178C208.755 154.926 208.135 155.557 207.396 156.02L183.449 169.864C182.019 170.692 180.863 170.104 180.863 168.551C180.926 167.682 181.193 166.84 181.642 166.094C182.092 165.348 182.71 164.718 183.449 164.255L207.423 150.411C208.853 149.584 209.988 150.172 209.988 151.718Z" fill="white"/>
<path d="M166.794 175.371L166.732 174.564C165.426 177.861 163.456 180.227 161.26 181.493C157.382 183.736 153.914 181.746 153.914 175.809C153.914 170.213 156.65 164.078 160.911 161.636C163.709 160.022 165.617 161.212 165.932 161.917V160.549C165.932 159.789 166.705 158.729 167.649 158.182C168.592 157.635 169.372 158.134 169.372 159.304V171.992C169.372 173.606 169.974 173.934 170.829 173.435C172.389 172.539 173.825 168.702 173.825 164.331C173.825 155.89 169.4 151.957 162.341 156.034C155.726 159.851 150.48 169.495 150.48 177.922C150.48 186.192 155.439 189.345 161.93 185.603C163.794 184.445 165.446 182.976 166.814 181.26C167.553 180.357 168.36 180.084 168.716 180.727C169.071 181.369 168.852 182.696 168.12 183.599C166.39 185.771 164.309 187.639 161.964 189.126C153.886 193.784 147.778 189.721 147.778 179.502C147.778 169.064 154.174 157.361 162.375 152.621C170.576 147.881 176.588 152.094 176.588 162.655C176.588 169.057 174.078 174.666 170.514 176.718C168.545 177.799 167.142 177.546 166.794 175.371ZM157.635 173.449C157.635 176.718 159.222 178.51 161.643 177.115C164.064 175.72 165.747 172.135 165.747 168.832C165.747 165.651 164.126 164.044 161.609 165.494C159.222 166.848 157.635 170.316 157.635 173.449Z" fill="white"/>
<path d="M180.959 74.5556C195.125 66.3476 206.602 73.0097 206.602 89.3642C206.602 105.719 195.125 125.616 180.959 133.783C166.793 141.95 155.316 135.329 155.316 118.975C155.316 102.62 166.793 82.7636 180.959 74.5556Z" fill="white"/>
<path d="M180.959 74.5556C195.125 66.3476 206.602 73.0097 206.602 89.3642C206.602 105.719 195.125 125.616 180.959 133.783C166.793 141.95 155.316 135.329 155.316 118.975C155.316 102.62 166.793 82.7636 180.959 74.5556Z" fill="#F5F5F5"/>
<mask id="mask0_414_927" style="mask-type:luminance" maskUnits="userSpaceOnUse" x="155" y="71" width="52" height="67">
<path d="M180.959 74.5556C195.125 66.3476 206.602 73.0097 206.602 89.3642C206.602 105.719 195.125 125.616 180.959 133.783C166.793 141.95 155.316 135.329 155.316 118.975C155.316 102.62 166.793 82.7636 180.959 74.5556Z" fill="white"/>
</mask>
<g mask="url(#mask0_414_927)">
<path d="M171.609 96.2725C170.434 96.4756 169.384 97.1281 168.681 98.0919C167.423 99.713 167.683 102.025 168.681 107.23L172.573 106.635L171.609 96.2725Z" fill="#263238"/>
<path d="M194.29 88.6119C195.164 88.3784 195.989 87.9892 196.725 87.4628C197.922 86.4573 198.23 87.7364 197.573 89.0907C197.138 90.0562 196.515 90.9257 195.741 91.6489C194.968 92.3722 194.058 92.9348 193.066 93.3042C193.025 93.14 191.944 90.5682 191.944 90.5682L194.29 88.6119Z" fill="#263238"/>
<path d="M173.845 123.12C173.845 123.12 166.595 127.799 165.022 129.447C163.448 131.096 162.799 136.233 162.217 142.519C162.217 142.519 170.473 146 183.421 139.591C196.369 133.182 197.539 128.113 197.539 128.113C197.539 128.113 195.863 120.501 195.241 118.387C194.454 115.713 192.936 113.784 184.105 117.792L173.845 123.12Z" fill="#263238"/>
<path d="M173.435 106.41C172.853 106.909 172.033 106.02 171.321 105.466C170.61 104.912 168.284 104.515 167.122 107.272C165.959 110.028 168.626 112.668 170.2 113.345C170.738 113.572 171.33 113.637 171.905 113.532C172.479 113.428 173.011 113.159 173.435 112.757L173.845 123.12C173.845 123.12 175.897 126.67 181.506 125.931C187.115 125.192 185.945 119.556 184.112 117.791V115.657C184.112 115.657 187.005 115.466 188.367 114.741C189.098 114.351 190.836 111.779 191.958 109.125C194.271 104.236 194.798 98.692 193.449 93.4548C191.445 85.4656 182.286 87.6613 176.828 92.5587C171.369 97.4562 173.435 106.41 173.435 106.41Z" fill="#FFA8A7"/>
<path d="M195.87 80.5957C195.378 78.9814 195.077 79.2687 191.116 82.0526C188.091 84.1823 184.716 85.7636 181.143 86.7243C178.353 87.5725 174.536 88.2428 172.573 90.8283C171.729 91.9402 171.298 93.3116 171.355 94.7066C171.189 94.5523 170.987 94.4418 170.767 94.3851C169.803 94.1252 168.619 94.8297 168.12 95.9651L171.54 96.8749C171.273 98.8448 170.507 104.926 171.342 105.459C172.06 105.917 173.161 107.456 173.455 107.374C174.433 107.094 174.823 102.757 175.357 100.131C175.938 97.1416 176.164 96.0267 177.238 95.9036C180.726 95.3537 184.159 94.5 187.498 93.3522C191.191 91.909 192.252 90.6847 192.252 90.6847L194.222 89.4329C195.101 88.1579 195.702 86.7122 195.986 85.1897C196.27 83.6671 196.23 82.1019 195.87 80.5957Z" fill="#263238"/>
<path d="M184.098 115.657C184.098 115.657 178.921 116.006 177.115 115.527C176.075 115.28 175.175 114.631 174.611 113.722C174.867 114.673 175.356 115.545 176.034 116.259C177.354 117.627 184.098 117.039 184.098 117.039V115.657Z" fill="#F28F8F"/>
<path d="M182.778 109.646L185.145 109.899C185.047 110.25 184.837 110.559 184.547 110.779C184.257 110.999 183.902 111.117 183.538 111.116C182.881 111.048 182.546 110.391 182.778 109.646Z" fill="#F28F8F"/>
<path d="M186.198 100.411L186.54 106.56L189.803 104.584L186.198 100.411Z" fill="#F28F8F"/>
<path d="M182.853 102.6C182.847 102.908 182.744 103.206 182.558 103.451C182.373 103.697 182.115 103.878 181.821 103.968C181.698 104.01 181.566 104.021 181.438 104C181.31 103.979 181.189 103.927 181.086 103.847C180.983 103.768 180.901 103.665 180.848 103.546C180.795 103.427 180.772 103.298 180.781 103.168C180.789 102.86 180.894 102.562 181.08 102.316C181.267 102.071 181.526 101.89 181.821 101.8C181.943 101.757 182.074 101.746 182.202 101.767C182.33 101.788 182.451 101.841 182.554 101.92C182.656 102 182.737 102.103 182.79 102.222C182.842 102.341 182.864 102.471 182.853 102.6Z" fill="#263238"/>
<path d="M181.752 98.9682L179.536 100.788C179.392 100.458 179.366 100.089 179.46 99.742C179.555 99.3951 179.765 99.0907 180.056 98.8793C180.165 98.7585 180.3 98.6636 180.45 98.6015C180.6 98.5394 180.763 98.5115 180.925 98.5201C181.088 98.5286 181.246 98.5732 181.389 98.6507C181.532 98.7283 181.656 98.8367 181.752 98.9682Z" fill="#263238"/>
<path d="M192.108 97.0525L190.056 96.0402C190.21 95.7236 190.474 95.4736 190.799 95.3365C191.123 95.1995 191.486 95.1846 191.821 95.2946C191.961 95.3866 192.08 95.5067 192.171 95.6471C192.262 95.7875 192.323 95.9454 192.35 96.1105C192.377 96.2757 192.369 96.4447 192.328 96.6069C192.286 96.769 192.211 96.9207 192.108 97.0525Z" fill="#263238"/>
<path d="M191.52 99.9801C191.511 100.287 191.407 100.584 191.222 100.829C191.037 101.074 190.78 101.256 190.487 101.348C190.364 101.39 190.233 101.401 190.104 101.38C189.976 101.359 189.855 101.307 189.752 101.227C189.649 101.148 189.567 101.045 189.514 100.926C189.461 100.807 189.438 100.677 189.447 100.548C189.455 100.24 189.56 99.9417 189.747 99.6962C189.933 99.4507 190.192 99.2701 190.487 99.1798C190.61 99.1373 190.741 99.126 190.869 99.147C190.997 99.168 191.118 99.2206 191.22 99.3001C191.323 99.3796 191.404 99.4834 191.456 99.6021C191.509 99.7209 191.53 99.8508 191.52 99.9801Z" fill="#263238"/>
</g>
</svg>
