<svg width="15" height="18" viewBox="0 0 15 18" fill="none" xmlns="http://www.w3.org/2000/svg">
<path d="M2.67823 1.67245C3.52446 0.979551 4.51393 0.483096 5.57527 0.218892C6.6366 -0.0453129 7.74334 -0.0706809 8.81566 0.144617C10.1944 0.427295 11.4629 1.10035 12.4699 2.08361C13.477 3.06687 14.1802 4.31888 14.4957 5.69051C14.8113 7.06214 14.7259 8.49557 14.2498 9.82004C13.7736 11.1445 12.9268 12.3042 11.8101 13.161C10.5352 14.0941 9.44975 15.2615 8.61173 16.6008L8.04073 17.5503C7.96821 17.6709 7.86572 17.7707 7.74323 17.84C7.62073 17.9093 7.48239 17.9457 7.34166 17.9457C7.20093 17.9457 7.0626 17.9093 6.9401 17.84C6.81761 17.7707 6.71512 17.6709 6.6426 17.5503L6.09525 16.6384C5.3655 15.3555 4.37048 14.2432 3.17663 13.3755C2.24051 12.7314 1.46687 11.8786 0.916747 10.8844C0.366623 9.89018 0.0550652 8.78172 0.00665569 7.64647C-0.0417538 6.51122 0.17431 5.38025 0.637799 4.3428C1.10129 3.30534 1.79952 2.38979 2.67741 1.66837L2.67823 1.67245ZM7.34248 10.6053C7.98781 10.6053 8.61865 10.414 9.15522 10.0554C9.6918 9.69692 10.11 9.18733 10.357 8.59112C10.6039 7.99491 10.6685 7.33886 10.5426 6.70593C10.4167 6.073 10.106 5.49161 9.64967 5.03529C9.19335 4.57897 8.61196 4.26822 7.97903 4.14232C7.3461 4.01642 6.69005 4.08103 6.09384 4.32799C5.49763 4.57495 4.98804 4.99316 4.62951 5.52973C4.27099 6.06631 4.07962 6.69715 4.07962 7.34248C4.07962 8.20784 4.42339 9.03776 5.03529 9.64967C5.64719 10.2616 6.47712 10.6053 7.34248 10.6053Z" fill="#61A7C6"/>
</svg>
